# xmcd CD database file
#
# Track frame offsets:
#	150
#	32334
#	64636
#	90911
#	131190
#	157067
#	183814
#	213031
#	245381
#	270153
#	305920
#
# Disc length: 4464 seconds
#
# Revision: 0
# Processed by: cddbd v1.5.2PL0 Copyright (c) Steve Scherf et al.
# Submitted via: CDex 1.70beta2
#
DISCID=87116e0b
DTITLE=Western Michigan University Jazz Orchestra - Spritely Overdue
DYEAR=1994
DGENRE=Jazz
TTITLE0=Silverado
TTITLE1=The Undefeated
TTITLE2=Passages
TTITLE3=Jefferson Avenue
TTITLE4=Caravan
TTITLE5=Knuckles
TTITLE6=Giant Steps
TTITLE7=Highland Park
TTITLE8=Come Rain or Come Shine
TTITLE9=The Nomad
TTITLE10=Just Friends
EXTD=YEAR: 1994
EXTT0=
EXTT1=
EXTT2=
EXTT3=
EXTT4=
EXTT5=
EXTT6=
EXTT7=
EXTT8=
EXTT9=
EXTT10=
PLAYORDER=
